<svg xmlns="http://www.w3.org/2000/svg" viewBox="0 0 64 64">
  <rect width="64" height="64" fill="#030303"/>
  <path d="M34.35 42.65C34.30 42.65 33.43 42.26 33.04 41.81C32.70 41.48 32.59 41.20 32.39 40.72L24.36 21.26L16.12 40.78C15.93 41.25 15.79 41.56 15.42 41.95C15.14 42.26 14.58 42.63 14.53 42.65L18.50 42.65C18.48 42.65 17.72 42.37 17.55 41.98C17.41 41.59 17.58 41.28 17.72 40.89L19.71 36.16L27.58 36.16L29.31 40.41C29.51 40.95 29.79 41.34 29.56 41.87C29.34 42.32 28.56 42.65 28.53 42.65ZM27.02 34.81L20.24 34.81L23.54 26.55ZM49.47 27.56C49.36 23.87 46.06 21.88 42.64 21.88L35.95 21.88C36.03 21.91 36.54 22.27 36.73 22.63C36.90 22.91 36.98 23.14 36.98 23.47L37.01 41.17C37.01 41.51 36.93 41.79 36.73 42.04C36.54 42.37 35.98 42.71 35.92 42.74L40.85 42.74C40.82 42.74 40.32 42.40 40.12 42.12C39.90 41.81 39.76 41.56 39.76 41.17L39.76 33.16C40.93 33.64 41.69 33.64 42.98 33.69C46.31 33.83 49.53 31.03 49.47 27.56ZM46.59 27.67C46.67 30.31 44.68 32.77 41.58 32.57C40.88 32.52 40.40 32.52 39.73 32.32L39.76 23.31L42.58 23.31C44.88 23.31 46.50 24.73 46.59 27.67Z" fill="#FAFAFA"/>
</svg>
